<?xml version="1.0" encoding="iso-8859-1"?>
<!-- Uploaded to: SVG Repo, www.svgrepo.com, Generator: SVG Repo Mixer Tools -->
<svg fill="#000000" height="800px" width="800px" version="1.1" id="Layer_1" xmlns="http://www.w3.org/2000/svg" xmlns:xlink="http://www.w3.org/1999/xlink" 
	 viewBox="0 0 511.999 511.999" xml:space="preserve">
<g>
	<g>
		<path d="M501.445,91.219l-25.797-25.797l24.76-24.76c8.222-8.222,8.222-21.553,0-29.775c-8.221-8.222-21.553-8.222-29.775,0
			l-24.76,24.76L421.48,11.253c-14.07-14.07-36.96-14.068-51.027,0L315.48,66.227c-6.805,6.803-10.551,15.864-10.551,25.514
			c0,9.65,3.746,18.712,10.551,25.514l24.394,24.394l-15.412,15.412l-25.095-25.095c-14.068-14.07-36.959-14.067-51.027,0
			l-54.973,54.974c-6.805,6.803-10.551,15.864-10.551,25.514s3.746,18.712,10.551,25.514l25.094,25.094l-15.086,15.086
			l-25.095-25.095c-14.068-14.066-36.959-14.066-51.027,0.001l-54.973,54.974c-14.068,14.068-14.068,36.96,0,51.027l25.095,25.095
			L6.167,475.356c-8.222,8.222-8.222,21.553,0,29.775c4.111,4.111,9.5,6.168,14.887,6.168s10.777-2.055,14.887-6.168l91.207-91.207
			l25.095,25.095c7.035,7.035,16.274,10.552,25.515,10.552c9.239,0,18.48-3.517,25.514-10.551l54.976-54.976
			c14.066-14.068,14.066-36.959-0.001-51.027l-25.095-25.095l15.086-15.086l25.095,25.095c7.035,7.035,16.275,10.552,25.514,10.552
			c9.24,0,18.48-3.517,25.515-10.552l54.973-54.973c6.805-6.803,10.551-15.865,10.551-25.514c0-9.65-3.748-18.712-10.551-25.514
			l-25.095-25.095l15.412-15.412l25.797,25.797c7.035,7.035,16.275,10.552,25.514,10.552c9.24,0,18.48-3.517,25.515-10.552
			l54.973-54.973c6.805-6.803,10.551-15.865,10.551-25.514C511.997,107.082,508.249,98.022,501.445,91.219z"/>
	</g>
</g>
</svg>